<svg width="45" height="42" viewBox="0 0 45 42" fill="none" xmlns="http://www.w3.org/2000/svg">
<rect x="1.5" y="1.5" width="42" height="39" rx="6.5" fill="#0EA5E9"/>
<path d="M21.9433 10H25.5H25.591V22.1705C25.591 23.2955 25.3382 24.2727 24.8325 25.1023C24.3325 25.9318 23.6365 26.571 22.7444 27.0199C21.8524 27.4687 20.8154 27.6932 19.6336 27.6932C18.5825 27.6932 17.6279 27.5085 16.77 27.1392C15.9177 26.7642 15.2416 26.196 14.7416 25.4347C14.2416 24.6676 13.9944 23.7045 14.0001 22.5455H17.6734C17.6848 23.0057 17.7785 23.4006 17.9546 23.7301C18.1365 24.054 18.3836 24.304 18.6961 24.4801C19.0143 24.6506 19.3893 24.7358 19.8211 24.7358C20.2757 24.7358 20.6592 24.6392 20.9717 24.446C21.2899 24.2472 21.5313 23.9574 21.6961 23.5767C21.8609 23.196 21.9433 22.7273 21.9433 22.1705V10Z" fill="white"/>
<path d="M21.9433 0V10H25.5V0H21.9433Z" fill="white"/>
<rect x="1.5" y="1.5" width="42" height="39" rx="6.5" stroke="white" stroke-width="3"/>
</svg>
